<svg id="visual" viewBox="0 0 1920 1080" width="1920" height="1080" xmlns="http://www.w3.org/2000/svg" xmlns:xlink="http://www.w3.org/1999/xlink" version="1.1"><rect x="0" y="0" width="1920" height="1080" fill="#171717"></rect><path d="M0 934L45.7 903.5C91.3 873 182.7 812 274.2 810C365.7 808 457.3 865 548.8 892.8C640.3 920.7 731.7 919.3 823 896.2C914.3 873 1005.7 828 1097 833.7C1188.3 839.3 1279.7 895.7 1371.2 904.5C1462.7 913.3 1554.3 874.7 1645.8 859.7C1737.3 844.7 1828.7 853.3 1874.3 857.7L1920 862L1920 1081L1874.3 1081C1828.7 1081 1737.3 1081 1645.8 1081C1554.3 1081 1462.7 1081 1371.2 1081C1279.7 1081 1188.3 1081 1097 1081C1005.7 1081 914.3 1081 823 1081C731.7 1081 640.3 1081 548.8 1081C457.3 1081 365.7 1081 274.2 1081C182.7 1081 91.3 1081 45.7 1081L0 1081Z" fill="#fa7268"></path><path d="M0 879L45.7 896C91.3 913 182.7 947 274.2 946C365.7 945 457.3 909 548.8 889.2C640.3 869.3 731.7 865.7 823 882.3C914.3 899 1005.7 936 1097 946.3C1188.3 956.7 1279.7 940.3 1371.2 934.2C1462.7 928 1554.3 932 1645.8 931.3C1737.3 930.7 1828.7 925.3 1874.3 922.7L1920 920L1920 1081L1874.3 1081C1828.7 1081 1737.3 1081 1645.8 1081C1554.3 1081 1462.7 1081 1371.2 1081C1279.7 1081 1188.3 1081 1097 1081C1005.7 1081 914.3 1081 823 1081C731.7 1081 640.3 1081 548.8 1081C457.3 1081 365.7 1081 274.2 1081C182.7 1081 91.3 1081 45.7 1081L0 1081Z" fill="#eb4a4e"></path><path d="M0 1010L45.7 1006.3C91.3 1002.7 182.7 995.3 274.2 991.2C365.7 987 457.3 986 548.8 975.2C640.3 964.3 731.7 943.7 823 938.5C914.3 933.3 1005.7 943.7 1097 957.2C1188.3 970.7 1279.7 987.3 1371.2 992C1462.7 996.7 1554.3 989.3 1645.8 974.2C1737.3 959 1828.7 936 1874.3 924.5L1920 913L1920 1081L1874.3 1081C1828.7 1081 1737.3 1081 1645.8 1081C1554.3 1081 1462.7 1081 1371.2 1081C1279.7 1081 1188.3 1081 1097 1081C1005.7 1081 914.3 1081 823 1081C731.7 1081 640.3 1081 548.8 1081C457.3 1081 365.7 1081 274.2 1081C182.7 1081 91.3 1081 45.7 1081L0 1081Z" fill="#da0037"></path></svg>