<svg id="visual" viewBox="0 0 675 900" width="675" height="900" xmlns="http://www.w3.org/2000/svg" xmlns:xlink="http://www.w3.org/1999/xlink" version="1.1"><rect x="0" y="0" width="675" height="900" fill="#171717"></rect><path d="M0 778L16 752.5C32 727 64 676 96.2 674.3C128.3 672.7 160.7 720.3 192.8 743.7C225 767 257 766 289.2 746.7C321.3 727.3 353.7 689.7 385.8 694.3C418 699 450 746 482.2 753.5C514.3 761 546.7 729 578.8 716.5C611 704 643 711 659 714.5L675 718L675 901L659 901C643 901 611 901 578.8 901C546.7 901 514.3 901 482.2 901C450 901 418 901 385.8 901C353.7 901 321.3 901 289.2 901C257 901 225 901 192.8 901C160.7 901 128.3 901 96.2 901C64 901 32 901 16 901L0 901Z" fill="#fa7268"></path><path d="M0 732L16 746.2C32 760.3 64 788.7 96.2 787.8C128.3 787 160.7 757 192.8 740.5C225 724 257 721 289.2 735C321.3 749 353.7 780 385.8 788.7C418 797.3 450 783.7 482.2 778.5C514.3 773.3 546.7 776.7 578.8 776.2C611 775.7 643 771.3 659 769.2L675 767L675 901L659 901C643 901 611 901 578.8 901C546.7 901 514.3 901 482.2 901C450 901 418 901 385.8 901C353.7 901 321.3 901 289.2 901C257 901 225 901 192.8 901C160.7 901 128.3 901 96.2 901C64 901 32 901 16 901L0 901Z" fill="#eb4a4e"></path><path d="M0 841L16 838C32 835 64 829 96.2 825.7C128.3 822.3 160.7 821.7 192.8 812.7C225 803.7 257 786.3 289.2 782C321.3 777.7 353.7 786.3 385.8 797.7C418 809 450 823 482.2 826.8C514.3 830.7 546.7 824.3 578.8 811.7C611 799 643 780 659 770.5L675 761L675 901L659 901C643 901 611 901 578.8 901C546.7 901 514.3 901 482.2 901C450 901 418 901 385.8 901C353.7 901 321.3 901 289.2 901C257 901 225 901 192.8 901C160.7 901 128.3 901 96.2 901C64 901 32 901 16 901L0 901Z" fill="#da0037"></path></svg>